<svg width="160" height="159" viewBox="0 0 160 159" fill="none" xmlns="http://www.w3.org/2000/svg">
<path d="M80.0001 0C35.8182 0 0 35.4682 0 79.2194C0 122.971 35.8182 158.439 80.0001 158.439C124.182 158.439 160 122.971 160 79.2194C160 35.4682 124.182 0 80.0001 0ZM94.8485 93.9245H65.1515V64.5244H94.8485V93.9245Z" fill="white"/>
<path d="M107.667 106.617H52.3438V51.8318H107.677V106.617H107.667ZM65.1518 93.9244H94.8487V64.5243H65.1518V93.9244Z" fill="url(#paint0_linear_2079_17234)"/>
<path d="M39.4849 39.0886V119.34H120.525V39.0886H39.4849ZM107.667 106.617H52.3436V51.8317H107.677V106.617H107.667Z" fill="url(#paint1_linear_2079_17234)"/>
<path d="M26.6274 26.3558V132.073H133.385V26.3558H26.6274ZM120.526 119.35H39.476V39.0989H120.526V119.35Z" fill="url(#paint2_linear_2079_17234)"/>
<path d="M160 158.439L94.8484 93.9246H65.1514L130.303 158.439H160Z" fill="url(#paint3_radial_2079_17234)"/>
<defs>
<linearGradient id="paint0_linear_2079_17234" x1="51.0867" y1="78.616" x2="106.396" y2="78.616" gradientUnits="userSpaceOnUse">
<stop stop-color="#4083E1"/>
<stop offset="0.08" stop-color="#3E8BDD"/>
<stop offset="0.48" stop-color="#36B1CC"/>
<stop offset="0.8" stop-color="#31C9C1"/>
<stop offset="1" stop-color="#30D2BE"/>
</linearGradient>
<linearGradient id="paint1_linear_2079_17234" x1="39.4748" y1="79.2192" x2="120.525" y2="79.2192" gradientUnits="userSpaceOnUse">
<stop stop-color="#80ACEB"/>
<stop offset="0.3" stop-color="#7BC0E1"/>
<stop offset="0.73" stop-color="#76D8D7"/>
<stop offset="1" stop-color="#75E1D4"/>
</linearGradient>
<linearGradient id="paint2_linear_2079_17234" x1="26.6173" y1="79.2194" x2="133.385" y2="79.2194" gradientUnits="userSpaceOnUse">
<stop stop-color="#BFD6F5"/>
<stop offset="0.55" stop-color="#BBE7ED"/>
<stop offset="1" stop-color="#BAF0E9"/>
</linearGradient>
<radialGradient id="paint3_radial_2079_17234" cx="0" cy="0" r="1" gradientUnits="userSpaceOnUse" gradientTransform="translate(79.1608 93.9246) rotate(44.2932) scale(92.3837 681.251)">
<stop stop-color="#40E0C7"/>
<stop offset="0.304248" stop-color="#0050C8"/>
<stop offset="0.623256" stop-color="white"/>
</radialGradient>
</defs>
</svg>
